PathFileType	4	(X/Y/Z)	C:\Users\Biomechanik\SynologyDrive\AlexP\Athlete_03\Athlete_3_25_03_31\Walking_03\marker_experimental.trc
DataRate	CameraRate	NumFrames	NumMarkers	Units	OrigDataRate	OrigDataStartFrame	OrigNumFrames
200.000000	200.000000	4	53	mm	200.000000	215	246
Frame#	Time	GLAB			RFHD			LFHD			C7			T6			SPINMOL			SPINM2			SPINM3			T12			BELTOL			BELT2			BELT3			SACROL			SACR2			SACR3			LTHOL			LTH2			LTH3			LSHAOL			LSHA2			LSHA3			LHEE			LTOE			LM5			RTHOL			RTH2			RTH3			RSHAOL			RSHA2			RSHA3			RHEE			RTOE			RM5			STRN			XIPH			LACR			LUAOL			LUA2			LUA3			LLAOL			LLA2			LLA3			LWRR			LWRU			RACR			RUAOL			RUA2			RUA3			RLAOL			RLA2			RLA3			RWRR			RWRU			
		X1	Y1	Z1	X2	Y2	Z2	X3	Y3	Z3	X4	Y4	Z4	X5	Y5	Z5	X6	Y6	Z6	X7	Y7	Z7	X8	Y8	Z8	X9	Y9	Z9	X10	Y10	Z10	X11	Y11	Z11	X12	Y12	Z12	X13	Y13	Z13	X14	Y14	Z14	X15	Y15	Z15	X16	Y16	Z16	X17	Y17	Z17	X18	Y18	Z18	X19	Y19	Z19	X20	Y20	Z20	X21	Y21	Z21	X22	Y22	Z22	X23	Y23	Z23	X24	Y24	Z24	X25	Y25	Z25	X26	Y26	Z26	X27	Y27	Z27	X28	Y28	Z28	X29	Y29	Z29	X30	Y30	Z30	X31	Y31	Z31	X32	Y32	Z32	X33	Y33	Z33	X34	Y34	Z34	X35	Y35	Z35	X36	Y36	Z36	X37	Y37	Z37	X38	Y38	Z38	X39	Y39	Z39	X40	Y40	Z40	X41	Y41	Z41	X42	Y42	Z42	X43	Y43	Z43	X44	Y44	Z44	X45	Y45	Z45	X46	Y46	Z46	X47	Y47	Z47	X48	Y48	Z48	X49	Y49	Z49	X50	Y50	Z50	X51	Y51	Z51	X52	Y52	Z52	X53	Y53	Z53	

216	1.075	951.6275634765624	1577.59521484375	171.6884002685549	901.8002929687499	1606.369750976562	235.8923797607424	911.4069824218749	1603.749145507812	97.41695404052751	720.0662231445311	1427.23583984375	160.1353607177736	659.6630249023436	1259.237548828125	163.3264007568361	649.6900024414061	1218.7197265625	143.7101898193361	646.5399780273436	1212.75830078125	193.6051330566407	654.3025512695311	1155.05712890625	161.4841308593751	677.6469726562499	1089.77734375	167.0193176269532	638.7606201171874	1058.089111328125	157.2606658935548	643.0282592773436	1054.608276367188	207.3133392333986	633.2442016601561	995.779296875	177.3384399414064	646.9270629882811	953.5982055664062	162.1364746093751	654.7041625976561	947.4400024414062	213.1069641113282	629.260986328125	893.1665649414062	183.7353973388673	662.61376953125	686.9182739257812	-7.262863636016724	605.4675903320312	647.114990234375	31.53127670288097	647.47607421875	630.1651000976562	10.7182254791261	558.8995361328125	342.1843261718751	23.29022979736338	498.0465698242188	294.3393554687501	42.52732467651376	546.4010620117188	282.0339355468751	34.20162963867197	441.770751953125	108.7854537963867	137.0963745117188	649.5967407226562	43.13804626464848	128.3632965087892	596.6262817382812	29.95368576049808	28.6397991180421	819.2539672851561	651.2867431640625	342.6778869628908	890.7264404296874	619.8668212890625	359.1558227539064	853.4244995117186	600.2550659179688	333.0771484375002	949.5182495117186	327.1754760742188	333.0774536132814	1010.326049804687	277.6655883789063	339.1736145019533	965.1318969726561	269.3161315917969	319.7343139648439	1046.576782226562	56.54561614990241	222.8906097412111	1238.607788085938	138.9194335937501	250.1722564697268	1198.461791992188	94.25546264648445	345.2280578613284	888.9939575195311	1323.130249023438	165.515823364258	899.8836059570311	1178.622680664062	163.040496826172	797.8997192382811	1390.368041992188	-9.315698623657079	820.2695922851561	1245.175048828125	-114.2520217895506	822.7327270507811	1182.660278320312	-134.9562988281249	866.2315063476561	1198.114501953125	-111.8739471435545	945.2043457031249	1013.657104492188	-162.5028533935545	952.4061279296874	936.8783569335939	-144.5544128417967	988.1752929687499	970.6354980468751	-154.6668395996092	1067.212768554688	903.9303588867189	-143.0255584716795	1092.2607421875	940.0308837890626	-76.08646392822246	798.771057128906	1384.038940429688	333.0856018066408	753.2208251953123	1242.963256835938	434.1328430175782	766.2200927734373	1179.045043945312	446.9331970214845	716.463195800781	1191.339721679688	452.7739868164064	712.8850097656248	972.8903198242188	497.6462707519532	755.9044189453124	916.3644409179688	534.2714843750001	717.7716064453124	909.5882568359375	505.4009094238282	740.4481201171874	825.5264282226562	528.8507080078126	785.4685058593749	801.567138671875	465.0755310058595	
217	1.08	958.7265624999999	1576.359130859375	173.0511016845705	908.8837890624999	1604.93798828125	237.3325347900392	918.4775390624999	1602.674194335938	98.85229492187517	727.1840209960936	1425.994140625	161.288787841797	666.7387084960936	1258.041259765625	164.2567138671876	656.7136840820311	1217.541870117188	144.601043701172	653.6365966796874	1211.505126953125	194.4897003173829	661.3312988281249	1153.851928710938	162.2745056152345	684.6798706054686	1088.510009765625	167.6500854492189	645.8199462890624	1056.908569335938	158.0776519775392	650.2727050781249	1053.326293945312	208.1084594726564	640.3540039062499	994.5503540039062	178.063934326172	653.9282836914061	952.6375732421875	162.8771820068361	661.9244384765624	946.3095703125	213.7632904052736	636.167236328125	892.1985473632812	184.3791656494142	667.7320556640625	686.7747802734375	-7.146853923797485	610.6259155273438	647.2359619140625	31.98389244079601	652.3618774414062	630.0808715820312	10.81034755706799	561.9413452148438	342.7015991210938	23.13919448852549	500.6317138671875	295.4255676269532	42.31933975219736	548.9103393554688	282.6931152343751	34.14104843139658	442.5453796386719	110.5092239379883	136.9047851562501	649.722900390625	42.9990730285645	128.3983154296876	596.8051147460938	30.00686836242679	28.66577720642101	825.7649536132811	649.7410278320312	342.4965820312502	897.0955810546874	618.2315673828125	359.5642700195314	859.9939575195311	598.7507934570312	332.9305419921877	958.5081787109374	325.8208923339844	332.8115844726564	1020.091491699219	277.2265319824219	339.0572814941408	975.0507812499999	268.2179565429688	319.5415039062502	1060.196166992188	56.28483200073249	223.1714019775393	1250.923706054688	142.1033477783204	249.9553527832034	1211.930541992188	96.41825866699226	345.1359863281252	896.1824340820311	1321.786254882812	166.2055053710939	906.9832763671874	1177.296508789062	163.3599548339845	804.7805175781249	1389.436279296875	-8.347755432128759	826.9691772460936	1244.467041015625	-113.4935455322264	829.4488525390624	1182.008666992188	-134.3612823486327	872.9777221679686	1197.445190429688	-111.3297119140623	952.4628295898436	1013.449279785156	-162.1498107910155	960.1848754882811	936.7104492187501	-144.2083282470701	995.7344360351561	970.7218627929689	-154.2757110595701	1075.220825195312	904.6038818359376	-142.5341186523436	1099.935424804688	940.8889160156251	-75.56935119628886	806.0838623046873	1382.421630859375	334.0409240722658	760.4298095703123	1241.223754882812	434.8022766113282	773.3576049804685	1177.294311523438	447.5573730468751	723.6170654296873	1189.62744140625	453.4022216796876	719.4865112304685	971.254638671875	498.0650939941407	762.2603149414061	914.5486450195312	534.7012939453126	724.1083374023436	907.93994140625	505.8345031738282	746.4251098632811	823.7879638671875	529.3167724609376	791.3258666992186	799.5886840820312	465.4818115234377	
218	1.085	965.8665161132811	1575.155639648438	174.4538421630861	916.0046386718749	1603.533813476562	238.8109741210939	925.5897216796874	1601.629760742188	100.3269805908205	734.3588256835936	1424.772338867188	162.4753265380861	673.8745727539061	1256.865356445312	165.2048950195314	663.7990722656249	1216.3876953125	145.5057830810548	660.7893676757811	1210.272583007812	195.3880767822267	668.4199829101561	1152.668334960938	163.0729217529298	691.7720336914061	1087.263427734375	168.2797393798829	652.9213256835936	1055.750244140625	158.9046020507814	657.5622558593749	1052.0634765625	208.9124603271486	647.5144042968749	993.3397827148438	178.7996673583986	660.9882202148436	951.6493530273438	163.620086669922	669.2073974609374	945.1563110351562	214.4190216064454	643.1602172851562	891.1961059570312	185.0258941650392	673.000732421875	686.6307983398438	-7.040421485900755	615.9378051757812	647.3399047851562	32.40916061401379	657.4076538085938	629.992919921875	10.885392189026	565.1416015625	343.2519531250001	22.9495906829835	503.3630065917969	296.5704345703126	42.05579757690439	551.5587768554688	283.3970642089844	34.03824996948252	443.3988952636719	112.3598327636719	136.654754638672	649.86181640625	42.85564422607426	128.4277496337892	597.0078125	30.06498908996586	28.68097496032726	832.6311035156249	648.317138671875	342.4819335937502	903.8808593749999	616.7943115234375	359.9598693847658	866.9319458007811	597.385009765625	332.9255371093752	967.3549804687499	324.5409240722657	332.5680236816408	1029.5712890625	276.7316894531251	338.9446716308595	984.6832885742186	267.1704101562501	319.3417358398439	1072.976684570312	56.00698852539069	223.3840484619143	1262.54052734375	144.791717529297	249.6302795410159	1224.626342773438	98.19391632080085	344.9409790039065	903.4263305664061	1320.471923828125	166.928421020508	914.1439819335936	1175.999267578125	163.7126312255861	811.7252197265624	1388.5322265625	-7.347147941589206	833.6967163085936	1243.778442382812	-112.702682495117	836.1602172851561	1181.3759765625	-133.734161376953	879.7333374023436	1196.777465820312	-110.7674407958983	959.6440429687499	1013.2119140625	-161.7816467285155	967.8506469726561	936.5123901367189	-143.8507385253905	1003.194946289062	970.7573852539064	-153.8773956298826	1083.095947265625	905.1915893554689	-142.0485992431639	1107.500610351562	941.6386718750001	-75.05815124511699	813.449768066406	1380.820678710938	335.0288085937502	767.702697753906	1239.487060546875	435.4935913085939	780.572570800781	1175.550048828125	448.1981201171877	730.845031738281	1187.90771484375	454.044891357422	726.2012939453123	969.6126098632812	498.4847106933595	768.7327880859374	912.73095703125	535.1323852539064	730.5649414062499	906.2869873046875	506.2672119140626	752.5324707031249	822.0467529296875	529.7772216796876	797.3267211914061	797.6220703125	465.8830566406252	
219	1.09	973.0512084960936	1573.989990234375	175.895706176758	923.1665039062499	1602.162719726562	240.3266601562502	932.7468261718749	1600.620483398438	101.8400192260744	741.5950317382811	1423.574340820312	163.6958312988283	681.0741577148436	1255.714599609375	166.1716156005861	670.9493408203124	1215.262084960938	146.4249114990236	668.0012817382811	1209.066284179688	196.3010711669923	675.5717163085936	1151.511474609375	163.880096435547	698.9279785156249	1086.04248046875	168.9094085693361	660.0701293945311	1054.613403320312	159.7395477294923	664.8991088867186	1050.820556640625	209.7236175537111	654.7300415039061	992.1480712890625	179.5442199707032	668.1137084960936	950.6361694335938	164.3606414794923	676.5565795898436	943.9837646484375	215.0708160400392	650.2447509765625	890.162353515625	185.6709899902345	678.4342041015625	686.4821166992188	-6.944431304931516	621.4152221679688	647.4224853515625	32.80329895019543	662.6281127929688	629.8970336914062	10.9433755874635	568.5115356445312	343.8363037109376	22.72238540649424	506.2521362304688	297.7761535644532	41.73856735229501	554.356689453125	284.1470642089844	33.89375686645518	444.3442687988281	114.3439407348633	136.3480987548829	650.0146484375	42.7073135375977	128.4523468017579	597.2373046875	30.12981224060062	28.6855754852296	839.8723144531249	647.0230712890625	342.6306457519533	911.1069335937499	615.5624389648438	360.3182678222658	874.2549438476561	596.1629638671875	333.0523071289064	976.0624389648436	323.3383483886719	332.3455505371095	1038.765747070312	276.1704711914063	338.8377990722658	994.0247192382811	266.1702575683594	319.1356811523439	1084.881958007812	55.68022155761725	223.5310821533205	1273.450805664062	146.9193572998048	249.2008209228518	1236.519897460938	99.54187011718757	344.6498718261721	910.7293090820311	1319.192138671875	167.6865997314455	921.3697509765624	1174.73583984375	164.1014251708986	818.7388305664061	1387.660766601562	-6.31263542175278	840.4572753906249	1243.1142578125	-111.8792648315428	842.8734130859374	1180.768188476562	-133.0785675048827	886.5023193359374	1196.11572265625	-110.1861801147459	966.7492065429686	1012.947204589844	-161.398971557617	975.4027709960936	936.2854614257814	-143.4830932617186	1010.557373046875	970.7434692382814	-153.4726104736326	1090.837890625	905.6921997070314	-141.5708160400389	1114.956909179688	942.2789916992189	-74.55373382568339	820.8734741210935	1379.241821289062	336.0499267578127	775.0446777343748	1237.7578125	436.208221435547	787.8688964843748	1173.81591796875	448.8562622070314	738.1513061523435	1186.185668945312	454.702606201172	733.0322265624998	967.9690551757812	498.904510498047	775.3247680664061	910.9163818359375	535.5654296875001	737.1462402343749	904.6336059570312	506.6973876953126	758.7751464843749	820.3076171875	530.2313842773439	803.4749755859374	795.67236328125	466.2799072265627	
